<?xml version="1.0" standalone="no"?>

<svg 
     version="1.1"
     baseProfile="full"
     xmlns="http://www.w3.org/2000/svg"
     xmlns:xlink="http://www.w3.org/1999/xlink"
     xmlns:ev="http://www.w3.org/2001/xml-events"
     xmlns:klighd="http://de.cau.cs.kieler/klighd"
     x="0px"
     y="0px"
     width="479px"
     height="246px"
     viewBox="0 0 479 246"
     xmlns:ehb="http://www.etas.com/ehandbook" ehb:data-clickpic-sourceId="Actuators.componentmanifest#S_aab3066" ehb:data-clickpic-parentId="Actuators.componentmanifest#S_aab3044"
     >
<title></title>
<desc>Creator: FreeHEP Graphics2D Driver Producer:de.cau.cs.kieler.klighd.piccolo.svggen.freeHEPExtendedRevision Source</desc>
<g stroke-dashoffset="0" stroke-linejoin="miter" stroke-dasharray="none" stroke-width="1" stroke-linecap="butt" stroke-miterlimit="10">
<g transform="matrix(1, 0, 0, 1, -22, -22)">
<g stroke-opacity="1" fill="none" stroke="#000000">
  <path d="M 55 139 L 55 139 C 55 139 55 139 55 139 L 60 139 C 60 139 60 139 60 139 L 90 139 C 90 139 90 139 90 139 L 105 139 C 105 139 105 139 105 139 L 105 139"/>
</g>
</g>
<g transform="matrix(1, 0.0000000000000004996, -0.0000000000000004996, 1, 75, 113.5)">
<g fill="#000000" fill-rule="nonzero" fill-opacity="1" stroke="none">
  <path d="M 0 0 L 0 7 L 7 3.5 z"/>
</g>
</g>
<g transform="matrix(1, 0.0000000000000004996, -0.0000000000000004996, 1, 75, 113.5)">
<g stroke-opacity="1" stroke-linejoin="round" fill="none" stroke="#000000">
  <path d="M 0 0 L 0 7 L 7 3.5 z"/>
</g>
</g>
<g transform="matrix(1, 0, 0, 1, -22, -22)">
<g stroke-opacity="1" fill="none" stroke="#000000">
  <path d="M 140 139 L 140 139 C 140 139 140 139 140 139 L 145 139 C 145 139 145 139 145 139 L 180 139 C 180 139 180 139 180 139 L 195 139 C 195 139 195 139 195 139 L 195 139"/>
</g>
</g>
<g transform="matrix(1, 0.00000000000000183187, -0.00000000000000183187, 1, 165, 113.49999999999999)">
<g fill="#000000" fill-rule="nonzero" fill-opacity="1" stroke="none">
  <path d="M 0 0 L 0 7 L 7 3.5 z"/>
</g>
</g>
<g transform="matrix(1, 0.00000000000000183187, -0.00000000000000183187, 1, 165, 113.49999999999999)">
<g stroke-opacity="1" stroke-linejoin="round" fill="none" stroke="#000000">
  <path d="M 0 0 L 0 7 L 7 3.5 z"/>
</g>
</g>
<g transform="matrix(1, 0, 0, 1, -22, -22)">
<g stroke-opacity="1" fill="none" stroke="#000000">
  <path d="M 305 139 L 305 139 C 305 139 305 139 305 139 L 310 139 C 310 139 310 139 310 139 L 340 139 C 340 139 340 139 340 139 L 355 139 C 355 139 355 139 355 139 L 355 139"/>
</g>
</g>
<g transform="matrix(1, -0.00000000000001110223, 0.00000000000001110223, 1, 324.99999999999994, 113.50000000000007)">
<g fill="#000000" fill-rule="nonzero" fill-opacity="1" stroke="none">
  <path d="M 0 0 L 0 7 L 7 3.5 z"/>
</g>
</g>
<g transform="matrix(1, -0.00000000000001110223, 0.00000000000001110223, 1, 324.99999999999994, 113.50000000000007)">
<g stroke-opacity="1" stroke-linejoin="round" fill="none" stroke="#000000">
  <path d="M 0 0 L 0 7 L 7 3.5 z"/>
</g>
</g>
<g transform="matrix(1, 0, 0, 1, -22, -22)">
<g stroke-opacity="1" fill="none" stroke="#000000">
  <path d="M 410 139 L 410 139 C 410 139 410 139 410 139 L 415 139 C 415 139 415 139 415 139 L 450 139 C 450 139 450 139 450 139 L 465 139 C 465 139 465 139 465 139 L 465 139"/>
</g>
</g>
<g transform="matrix(1, -0.00000000000000882627, 0.00000000000000882627, 1, 434.99999999999994, 113.50000000000006)">
<g fill="#000000" fill-rule="nonzero" fill-opacity="1" stroke="none">
  <path d="M 0 0 L 0 7 L 7 3.5 z"/>
</g>
</g>
<g transform="matrix(1, -0.00000000000000882627, 0.00000000000000882627, 1, 434.99999999999994, 113.50000000000006)">
<g stroke-opacity="1" stroke-linejoin="round" fill="none" stroke="#000000">
  <path d="M 0 0 L 0 7 L 7 3.5 z"/>
</g>
</g>
<g transform="matrix(1, 0, 0, 1, 7, 114)">
<g fill="#000000" fill-rule="nonzero" fill-opacity="0.09803921729326248" stroke="none">
  <path d="M 0.5 8 L 0.5 8 C 0.5 12.142135623730951 4.081722001353653 15.5 8.5 15.5 L 23.5 15.5 C 27.918277998646346 15.5 31.5 12.142135623730951 31.5 8 L 31.5 8 C 31.5 3.85786437626905 27.918277998646346 0.5 23.5 0.5 L 8.5 0.5 C 4.081722001353653 0.5 0.5 3.85786437626905 0.5 8 z"/>
</g>
</g>
<g transform="matrix(1, 0, 0, 1, 6, 113)">
<g fill="#000000" fill-rule="nonzero" fill-opacity="0.09803921729326248" stroke="none">
  <path d="M 0.5 8 L 0.5 8 C 0.5 12.142135623730951 4.081722001353653 15.5 8.5 15.5 L 23.5 15.5 C 27.918277998646346 15.5 31.5 12.142135623730951 31.5 8 L 31.5 8 C 31.5 3.85786437626905 27.918277998646346 0.5 23.5 0.5 L 8.5 0.5 C 4.081722001353653 0.5 0.5 3.85786437626905 0.5 8 z"/>
</g>
</g>
<g transform="matrix(1, 0, 0, 1, 5, 112)">
<g fill="#000000" fill-rule="nonzero" fill-opacity="0.09803921729326248" stroke="none">
  <path d="M 0.5 8 L 0.5 8 C 0.5 12.142135623730951 4.081722001353653 15.5 8.5 15.5 L 23.5 15.5 C 27.918277998646346 15.5 31.5 12.142135623730951 31.5 8 L 31.5 8 C 31.5 3.85786437626905 27.918277998646346 0.5 23.5 0.5 L 8.5 0.5 C 4.081722001353653 0.5 0.5 3.85786437626905 0.5 8 z"/>
</g>
</g>
<g transform="matrix(1, 0, 0, 1, 4, 111)">
<g fill="#000000" fill-rule="nonzero" fill-opacity="0.09803921729326248" stroke="none">
  <path d="M 0.5 8 L 0.5 8 C 0.5 12.142135623730951 4.081722001353653 15.5 8.5 15.5 L 23.5 15.5 C 27.918277998646346 15.5 31.5 12.142135623730951 31.5 8 L 31.5 8 C 31.5 3.85786437626905 27.918277998646346 0.5 23.5 0.5 L 8.5 0.5 C 4.081722001353653 0.5 0.5 3.85786437626905 0.5 8 z"/>
</g>
</g>
<g transform="matrix(1, 0, 0, 1, 3, 110)">
<g fill="#ffffff" fill-rule="nonzero" fill-opacity="1" stroke="none">
  <path d="M 0.5 8 L 0.5 8 C 0.5 12.142135623730951 4.081722001353653 15.5 8.5 15.5 L 23.5 15.5 C 27.918277998646346 15.5 31.5 12.142135623730951 31.5 8 L 31.5 8 C 31.5 3.85786437626905 27.918277998646346 0.5 23.5 0.5 L 8.5 0.5 C 4.081722001353653 0.5 0.5 3.85786437626905 0.5 8 z"/>
</g>
</g>
<g transform="matrix(1, 0, 0, 1, 3, 110)">
<g fill="#ffffff" fill-rule="nonzero" fill-opacity="1" stroke="none">
  <path d="M 0.5 8 L 0.5 8 C 0.5 12.142135623730951 4.081722001353653 15.5 8.5 15.5 L 23.5 15.5 C 27.918277998646346 15.5 31.5 12.142135623730951 31.5 8 L 31.5 8 C 31.5 3.85786437626905 27.918277998646346 0.5 23.5 0.5 L 8.5 0.5 C 4.081722001353653 0.5 0.5 3.85786437626905 0.5 8 z"/>
</g>
</g>
<g transform="matrix(1, 0, 0, 1, 3, 110)">
<g stroke-opacity="1" fill="none" stroke="#000000">
  <path d="M 0.5 8 L 0.5 8 C 0.5 12.142135623730951 4.081722001353653 15.5 8.5 15.5 L 23.5 15.5 C 27.918277998646346 15.5 31.5 12.142135623730951 31.5 8 L 31.5 8 C 31.5 3.85786437626905 27.918277998646346 0.5 23.5 0.5 L 8.5 0.5 C 4.081722001353653 0.5 0.5 3.85786437626905 0.5 8 z"/>
</g>
</g>
<g transform="matrix(1, 0, 0, 1, 33, 117)">
<g stroke-opacity="1" fill="none" stroke="#000000">
  <path d="M 0 0 L 1 0"/>
</g>
</g>
<g transform="matrix(1, 0, 0, 1, 15.5, 111.5)">
  <text x="0" y="11.0" font-weight="normal" font-size="10.666666984558105px" font-style="normal" fill="#0000ff" stroke="none" font-family="Arial" style="white-space: pre" fill-opacity="1" textLength="7.0px" lengthAdjust="spacingAndGlyphs" id="69e897b5-aacb-4951-b5b1-fb969c2addd6" klighd:EHBSVGMapClass="FIGURE" ehb:data-label-unique-name="state">1</text>
</g>
<g transform="matrix(1, 0, 0, 1, 8, 126)">
  <text x="0" y="11.0" font-weight="normal" font-size="10.666666984558105px" font-style="normal" fill="#0000ff" stroke="none" font-family="Arial" style="white-space: pre" fill-opacity="1" textLength="25.0px" lengthAdjust="spacingAndGlyphs" id="1655f27f-ccbd-4350-9fa8-6afe834a66ea" klighd:EHBSVGMapClass="FIGURE" ehb:data-label-unique-name="state">state</text>
</g>
<g transform="matrix(1, 0, 0, 1, 87, 104)">
<g fill="#000000" fill-rule="nonzero" fill-opacity="0.09803921729326248" stroke="none">
  <path d="M 0.5 0.5 L 36.5 0.5 L 36.5 35.5 L 0.5 35.5 L 0.5 0.5 z"/>
</g>
</g>
<g transform="matrix(1, 0, 0, 1, 86, 103)">
<g fill="#000000" fill-rule="nonzero" fill-opacity="0.09803921729326248" stroke="none">
  <path d="M 0.5 0.5 L 36.5 0.5 L 36.5 35.5 L 0.5 35.5 L 0.5 0.5 z"/>
</g>
</g>
<g transform="matrix(1, 0, 0, 1, 85, 102)">
<g fill="#000000" fill-rule="nonzero" fill-opacity="0.09803921729326248" stroke="none">
  <path d="M 0.5 0.5 L 36.5 0.5 L 36.5 35.5 L 0.5 35.5 L 0.5 0.5 z"/>
</g>
</g>
<g transform="matrix(1, 0, 0, 1, 84, 101)">
<g fill="#000000" fill-rule="nonzero" fill-opacity="0.09803921729326248" stroke="none">
  <path d="M 0.5 0.5 L 36.5 0.5 L 36.5 35.5 L 0.5 35.5 L 0.5 0.5 z"/>
</g>
</g>
<g transform="matrix(1, 0, 0, 1, 83, 100)">
<g fill="#ffffff" fill-rule="nonzero" fill-opacity="1" stroke="none">
  <path d="M 0.5 0.5 L 36.5 0.5 L 36.5 35.5 L 0.5 35.5 L 0.5 0.5 z"/>
</g>
</g>
<g transform="matrix(1, 0, 0, 1, 83, 100)">
<g fill="#ffffff" fill-rule="nonzero" fill-opacity="1" stroke="none">
  <path d="M 0.5 0.5 L 36.5 0.5 L 36.5 35.5 L 0.5 35.5 L 0.5 0.5 z"/>
</g>
</g>
<g transform="matrix(1, 0, 0, 1, 83, 100)">
<g stroke-opacity="1" fill="none" stroke="#000000">
  <path d="M 0.5 0.5 L 36.5 0.5 L 36.5 35.5 L 0.5 35.5 L 0.5 0.5 z"/>
</g>
</g>
<g transform="matrix(1, 0, 0, 1, 83, 117)">
<g stroke-opacity="1" fill="none" stroke="#000000">
  <path d="M 0 0 L 0 0"/>
</g>
</g>
<g transform="matrix(1, 0, 0, 1, 118, 117)">
<g stroke-opacity="1" fill="none" stroke="#000000">
  <path d="M 0 0 L 1 0"/>
</g>
</g>
<g transform="matrix(1, 0, 0, 1, 89.5, 111.5)">
  <text x="0" y="11.0" font-weight="normal" font-size="10.666666984558105px" font-style="normal" fill="#000000" stroke="none" font-family="Arial" style="white-space: pre" fill-opacity="1" textLength="24.0px" lengthAdjust="spacingAndGlyphs">uint8</text>
</g>
<g transform="matrix(1, 0, 0, 1, 337, 103)">
<g fill="#000000" fill-rule="nonzero" fill-opacity="0.09803921729326248" stroke="none">
  <path d="M 0.5 0.5 L 56.5 0.5 L 56.5 37.5 L 0.5 37.5 L 0.5 0.5 z"/>
</g>
</g>
<g transform="matrix(1, 0, 0, 1, 336, 102)">
<g fill="#000000" fill-rule="nonzero" fill-opacity="0.09803921729326248" stroke="none">
  <path d="M 0.5 0.5 L 56.5 0.5 L 56.5 37.5 L 0.5 37.5 L 0.5 0.5 z"/>
</g>
</g>
<g transform="matrix(1, 0, 0, 1, 335, 101)">
<g fill="#000000" fill-rule="nonzero" fill-opacity="0.09803921729326248" stroke="none">
  <path d="M 0.5 0.5 L 56.5 0.5 L 56.5 37.5 L 0.5 37.5 L 0.5 0.5 z"/>
</g>
</g>
<g transform="matrix(1, 0, 0, 1, 334, 100)">
<g fill="#000000" fill-rule="nonzero" fill-opacity="0.09803921729326248" stroke="none">
  <path d="M 0.5 0.5 L 56.5 0.5 L 56.5 37.5 L 0.5 37.5 L 0.5 0.5 z"/>
</g>
</g>
<g transform="matrix(1, 0, 0, 1, 333, 99)">
<g fill="#ffffff" fill-rule="nonzero" fill-opacity="1" stroke="none">
  <path d="M 0.5 0.5 L 56.5 0.5 L 56.5 37.5 L 0.5 37.5 L 0.5 0.5 z"/>
</g>
</g>
<g transform="matrix(1, 0, 0, 1, 333, 99)">
<g fill="#ffffff" fill-rule="nonzero" fill-opacity="1" stroke="none">
  <path d="M 0.5 0.5 L 56.5 0.5 L 56.5 37.5 L 0.5 37.5 L 0.5 0.5 z"/>
</g>
</g>
<g transform="matrix(1, 0, 0, 1, 333, 99)">
<g stroke-opacity="1" fill="none" stroke="#000000">
  <path d="M 0.5 0.5 L 56.5 0.5 L 56.5 37.5 L 0.5 37.5 L 0.5 0.5 z"/>
</g>
</g>
<g transform="matrix(1, 0, 0, 1, 333, 117)">
<g stroke-opacity="1" fill="none" stroke="#000000">
  <path d="M 0 0 L 0 0"/>
</g>
</g>
<g transform="matrix(1, 0, 0, 1, 388, 117)">
<g stroke-opacity="1" fill="none" stroke="#000000">
  <path d="M 0 0 L 1 0"/>
</g>
</g>
<g transform="matrix(1, 0, 0, 1, 342, 111.5)">
  <text x="0" y="11.0" font-weight="normal" font-size="10.666666984558105px" font-style="normal" fill="#000000" stroke="none" font-family="Arial" style="white-space: pre" fill-opacity="1" textLength="39.0px" lengthAdjust="spacingAndGlyphs">boolean</text>
</g>
<g transform="matrix(1, 0, 0, 1, 177, 7)">
<g fill="#000000" fill-rule="nonzero" fill-opacity="0.09803921729326248" stroke="none">
  <path d="M 0.5 0.5 L 111.5 0.5 L 111.5 229.5 L 0.5 229.5 L 0.5 0.5 z"/>
</g>
</g>
<g transform="matrix(1, 0, 0, 1, 176, 6)">
<g fill="#000000" fill-rule="nonzero" fill-opacity="0.09803921729326248" stroke="none">
  <path d="M 0.5 0.5 L 111.5 0.5 L 111.5 229.5 L 0.5 229.5 L 0.5 0.5 z"/>
</g>
</g>
<g transform="matrix(1, 0, 0, 1, 175, 5)">
<g fill="#000000" fill-rule="nonzero" fill-opacity="0.09803921729326248" stroke="none">
  <path d="M 0.5 0.5 L 111.5 0.5 L 111.5 229.5 L 0.5 229.5 L 0.5 0.5 z"/>
</g>
</g>
<g transform="matrix(1, 0, 0, 1, 174, 4)">
<g fill="#000000" fill-rule="nonzero" fill-opacity="0.09803921729326248" stroke="none">
  <path d="M 0.5 0.5 L 111.5 0.5 L 111.5 229.5 L 0.5 229.5 L 0.5 0.5 z"/>
</g>
</g>
<g transform="matrix(1, 0, 0, 1, 173, 3)">
<g fill="#ffffff" fill-rule="nonzero" fill-opacity="1" stroke="none">
  <path d="M 0.5 0.5 L 111.5 0.5 L 111.5 229.5 L 0.5 229.5 L 0.5 0.5 z"/>
</g>
</g>
<g transform="matrix(1, 0, 0, 1, 173, 3)">
<g fill="#63b9ff" fill-rule="nonzero" fill-opacity="1" stroke="none">
  <path d="M 0.5 0.5 L 111.5 0.5 L 111.5 229.5 L 0.5 229.5 L 0.5 0.5 z"/>
</g>
</g>
<g transform="matrix(1, 0, 0, 1, 173, 3)">
<g stroke-opacity="1" fill="none" stroke="#000000">
  <path d="M 0.5 0.5 L 111.5 0.5 L 111.5 229.5 L 0.5 229.5 L 0.5 0.5 z"/>
</g>
</g>
<g transform="matrix(1, 0, 0, 1, 173, 117)">
<g stroke-opacity="1" fill="none" stroke="#000000">
  <path d="M 0 0 L 0 0"/>
</g>
</g>
<g transform="matrix(1, 0, 0, 1, 283, 117)">
<g stroke-opacity="1" fill="none" stroke="#000000">
  <path d="M 0 0 L 1 0"/>
</g>
</g>
<g transform="matrix(1, 0, 0, 1, 121, 111.5)">
  <text x="0" y="11.0" font-weight="normal" font-size="10.666666984558105px" font-style="normal" fill="#000000" stroke="none" font-family="Arial" style="white-space: pre" fill-opacity="1" textLength="216.0px" lengthAdjust="spacingAndGlyphs">ehooks_medc17flex_devlib_basic_io_fcncall</text>
</g>
<g transform="matrix(1, 0, 0, 1, 130, 233)">
  <text x="0" y="11.0" font-weight="normal" font-size="10.666666984558105px" font-style="normal" fill="#0000ff" stroke="none" font-family="Arial" style="white-space: pre" fill-opacity="1" textLength="199.0px" lengthAdjust="spacingAndGlyphs" id="36d56ad4-be43-49cb-be6d-3ae89b9b1058">FlexECU_DevLib_FcnAPI_Wrapper_SFcn</text>
</g>
<g transform="matrix(1, 0, 0, 1, 447, 114)">
<g fill="#000000" fill-rule="nonzero" fill-opacity="0.09803921729326248" stroke="none">
  <path d="M 0.5 8 L 0.5 8 C 0.5 12.142135623730951 4.081722001353653 15.5 8.5 15.5 L 23.5 15.5 C 27.918277998646346 15.5 31.5 12.142135623730951 31.5 8 L 31.5 8 C 31.5 3.85786437626905 27.918277998646346 0.5 23.5 0.5 L 8.5 0.5 C 4.081722001353653 0.5 0.5 3.85786437626905 0.5 8 z"/>
</g>
</g>
<g transform="matrix(1, 0, 0, 1, 446, 113)">
<g fill="#000000" fill-rule="nonzero" fill-opacity="0.09803921729326248" stroke="none">
  <path d="M 0.5 8 L 0.5 8 C 0.5 12.142135623730951 4.081722001353653 15.5 8.5 15.5 L 23.5 15.5 C 27.918277998646346 15.5 31.5 12.142135623730951 31.5 8 L 31.5 8 C 31.5 3.85786437626905 27.918277998646346 0.5 23.5 0.5 L 8.5 0.5 C 4.081722001353653 0.5 0.5 3.85786437626905 0.5 8 z"/>
</g>
</g>
<g transform="matrix(1, 0, 0, 1, 445, 112)">
<g fill="#000000" fill-rule="nonzero" fill-opacity="0.09803921729326248" stroke="none">
  <path d="M 0.5 8 L 0.5 8 C 0.5 12.142135623730951 4.081722001353653 15.5 8.5 15.5 L 23.5 15.5 C 27.918277998646346 15.5 31.5 12.142135623730951 31.5 8 L 31.5 8 C 31.5 3.85786437626905 27.918277998646346 0.5 23.5 0.5 L 8.5 0.5 C 4.081722001353653 0.5 0.5 3.85786437626905 0.5 8 z"/>
</g>
</g>
<g transform="matrix(1, 0, 0, 1, 444, 111)">
<g fill="#000000" fill-rule="nonzero" fill-opacity="0.09803921729326248" stroke="none">
  <path d="M 0.5 8 L 0.5 8 C 0.5 12.142135623730951 4.081722001353653 15.5 8.5 15.5 L 23.5 15.5 C 27.918277998646346 15.5 31.5 12.142135623730951 31.5 8 L 31.5 8 C 31.5 3.85786437626905 27.918277998646346 0.5 23.5 0.5 L 8.5 0.5 C 4.081722001353653 0.5 0.5 3.85786437626905 0.5 8 z"/>
</g>
</g>
<g transform="matrix(1, 0, 0, 1, 443, 110)">
<g fill="#ffffff" fill-rule="nonzero" fill-opacity="1" stroke="none">
  <path d="M 0.5 8 L 0.5 8 C 0.5 12.142135623730951 4.081722001353653 15.5 8.5 15.5 L 23.5 15.5 C 27.918277998646346 15.5 31.5 12.142135623730951 31.5 8 L 31.5 8 C 31.5 3.85786437626905 27.918277998646346 0.5 23.5 0.5 L 8.5 0.5 C 4.081722001353653 0.5 0.5 3.85786437626905 0.5 8 z"/>
</g>
</g>
<g transform="matrix(1, 0, 0, 1, 443, 110)">
<g fill="#ffffff" fill-rule="nonzero" fill-opacity="1" stroke="none">
  <path d="M 0.5 8 L 0.5 8 C 0.5 12.142135623730951 4.081722001353653 15.5 8.5 15.5 L 23.5 15.5 C 27.918277998646346 15.5 31.5 12.142135623730951 31.5 8 L 31.5 8 C 31.5 3.85786437626905 27.918277998646346 0.5 23.5 0.5 L 8.5 0.5 C 4.081722001353653 0.5 0.5 3.85786437626905 0.5 8 z"/>
</g>
</g>
<g transform="matrix(1, 0, 0, 1, 443, 110)">
<g stroke-opacity="1" fill="none" stroke="#000000">
  <path d="M 0.5 8 L 0.5 8 C 0.5 12.142135623730951 4.081722001353653 15.5 8.5 15.5 L 23.5 15.5 C 27.918277998646346 15.5 31.5 12.142135623730951 31.5 8 L 31.5 8 C 31.5 3.85786437626905 27.918277998646346 0.5 23.5 0.5 L 8.5 0.5 C 4.081722001353653 0.5 0.5 3.85786437626905 0.5 8 z"/>
</g>
</g>
<g transform="matrix(1, 0, 0, 1, 443, 117)">
<g stroke-opacity="1" fill="none" stroke="#000000">
  <path d="M 0 0 L 0 0"/>
</g>
</g>
<g transform="matrix(1, 0, 0, 1, 455.5, 111.5)">
  <text x="0" y="11.0" font-weight="normal" font-size="10.666666984558105px" font-style="normal" fill="#0000ff" stroke="none" font-family="Arial" style="white-space: pre" fill-opacity="1" textLength="7.0px" lengthAdjust="spacingAndGlyphs" id="7de31247-ae75-464e-9872-76d5f7a1e9be" klighd:EHBSVGMapClass="FIGURE" ehb:data-label-unique-name="status">1</text>
</g>
<g transform="matrix(1, 0, 0, 1, 445, 126)">
  <text x="0" y="11.0" font-weight="normal" font-size="10.666666984558105px" font-style="normal" fill="#0000ff" stroke="none" font-family="Arial" style="white-space: pre" fill-opacity="1" textLength="30.0px" lengthAdjust="spacingAndGlyphs" id="68459bf0-3a40-477d-91d0-9ed1ce48d3d1" klighd:EHBSVGMapClass="FIGURE" ehb:data-label-unique-name="status">status</text>
</g>
</g>
</svg>
